<svg width="17" height="17" viewBox="0 0 17 17" fill="none" xmlns="http://www.w3.org/2000/svg">
<g id="lets-icons:date-fill">
<g id="Group">
<path id="Vector" d="M1.41663 6.37508C1.41663 5.03916 1.41663 4.37191 1.83171 3.95683C2.24679 3.54175 2.91404 3.54175 4.24996 3.54175H12.75C14.0859 3.54175 14.7531 3.54175 15.1682 3.95683C15.5833 4.37191 15.5833 5.03916 15.5833 6.37508C15.5833 6.70871 15.5833 6.87587 15.4799 6.98C15.3758 7.08342 15.2079 7.08342 14.875 7.08342H2.12496C1.79133 7.08342 1.62417 7.08342 1.52004 6.98C1.41663 6.87587 1.41663 6.708 1.41663 6.37508ZM1.41663 12.7501C1.41663 14.086 1.41663 14.7532 1.83171 15.1683C2.24679 15.5834 2.91404 15.5834 4.24996 15.5834H12.75C14.0859 15.5834 14.7531 15.5834 15.1682 15.1683C15.5833 14.7532 15.5833 14.086 15.5833 12.7501V9.20842C15.5833 8.87479 15.5833 8.70762 15.4799 8.6035C15.3758 8.50008 15.2079 8.50008 14.875 8.50008H2.12496C1.79133 8.50008 1.62417 8.50008 1.52004 8.6035C1.41663 8.70762 1.41663 8.8755 1.41663 9.20842V12.7501Z" fill="#CF3737"/>
<path id="Vector_2" d="M4.95825 2.125V4.25M12.0416 2.125V4.25" stroke="#CF3737" stroke-width="2" stroke-linecap="round"/>
</g>
</g>
</svg>
