<svg width="101" height="18" viewBox="0 0 101 18" fill="none" xmlns="http://www.w3.org/2000/svg">
<path d="M9.03792 1.70999L10.8256 5.78733C10.8929 5.94076 11.0001 6.07332 11.136 6.1712C11.272 6.26908 11.4317 6.32869 11.5985 6.34382L15.9535 6.73429C16.4462 6.80601 16.6428 7.4103 16.2855 7.75827L13.005 10.5141C12.7394 10.7373 12.6185 11.0879 12.6916 11.4266L13.6452 15.8904C13.7289 16.3805 13.2149 16.755 12.7739 16.5226L8.97284 14.2966C8.8295 14.2124 8.66627 14.1681 8.50003 14.1681C8.33379 14.1681 8.17057 14.2124 8.02722 14.2966L4.22612 16.5212C3.78651 16.7523 3.2712 16.3791 3.35487 15.8891L4.30847 11.4252C4.38019 11.0866 4.26066 10.7359 3.99503 10.5128L0.713233 7.7596C0.357295 7.41296 0.553858 6.80733 1.04526 6.73562L5.40019 6.34515C5.56703 6.33002 5.72676 6.27041 5.86271 6.17253C5.99867 6.07465 6.10588 5.94209 6.17316 5.78866L7.96081 1.71132C8.18261 1.26507 8.81745 1.26507 9.03792 1.70999Z" fill="#FDD835"/>
<path d="M8.90771 6.03217L8.6049 3.02795C8.59294 2.86061 8.55841 2.57373 8.82669 2.57373C9.03919 2.57373 9.15474 3.016 9.15474 3.016L10.0632 5.42787C10.4058 6.34561 10.2651 6.66037 9.93435 6.84631C9.55451 7.05881 8.99404 6.89279 8.90771 6.03217Z" fill="#FFFF8D"/>
<path d="M12.6544 10.2475L15.2602 8.21414C15.389 8.10656 15.6214 7.93523 15.4355 7.74C15.2881 7.58594 14.8896 7.80773 14.8896 7.80773L12.6093 8.6989C11.9293 8.93398 11.4777 9.28195 11.4379 9.72023C11.3861 10.3046 11.9107 10.7548 12.6544 10.2475Z" fill="#F4B400"/>
<path d="M30.0379 1.70999L31.8256 5.78733C31.8929 5.94076 32.0001 6.07332 32.136 6.1712C32.272 6.26908 32.4317 6.32869 32.5985 6.34382L36.9535 6.73429C37.4462 6.80601 37.6428 7.4103 37.2855 7.75827L34.005 10.5141C33.7394 10.7373 33.6185 11.0879 33.6916 11.4266L34.6452 15.8904C34.7289 16.3805 34.2149 16.755 33.7739 16.5226L29.9728 14.2966C29.8295 14.2124 29.6663 14.1681 29.5 14.1681C29.3338 14.1681 29.1706 14.2124 29.0272 14.2966L25.2261 16.5212C24.7865 16.7523 24.2712 16.3791 24.3549 15.8891L25.3085 11.4252C25.3802 11.0866 25.2607 10.7359 24.995 10.5128L21.7132 7.7596C21.3573 7.41296 21.5539 6.80733 22.0453 6.73562L26.4002 6.34515C26.567 6.33002 26.7268 6.27041 26.8627 6.17253C26.9987 6.07465 27.1059 5.94209 27.1732 5.78866L28.9608 1.71132C29.1826 1.26507 29.8175 1.26507 30.0379 1.70999Z" fill="#FDD835"/>
<path d="M29.9077 6.03217L29.6049 3.02795C29.5929 2.86061 29.5584 2.57373 29.8267 2.57373C30.0392 2.57373 30.1547 3.016 30.1547 3.016L31.0632 5.42787C31.4058 6.34561 31.2651 6.66037 30.9344 6.84631C30.5545 7.05881 29.994 6.89279 29.9077 6.03217Z" fill="#FFFF8D"/>
<path d="M33.6544 10.2475L36.2602 8.21414C36.389 8.10656 36.6214 7.93523 36.4355 7.74C36.2881 7.58594 35.8896 7.80773 35.8896 7.80773L33.6093 8.6989C32.9293 8.93398 32.4777 9.28195 32.4379 9.72023C32.3861 10.3046 32.9107 10.7548 33.6544 10.2475Z" fill="#F4B400"/>
<path d="M51.0379 1.70999L52.8256 5.78733C52.8929 5.94076 53.0001 6.07332 53.136 6.1712C53.272 6.26908 53.4317 6.32869 53.5985 6.34382L57.9535 6.73429C58.4462 6.80601 58.6428 7.4103 58.2855 7.75827L55.005 10.5141C54.7394 10.7373 54.6185 11.0879 54.6916 11.4266L55.6452 15.8904C55.7289 16.3805 55.2149 16.755 54.7739 16.5226L50.9728 14.2966C50.8295 14.2124 50.6663 14.1681 50.5 14.1681C50.3338 14.1681 50.1706 14.2124 50.0272 14.2966L46.2261 16.5212C45.7865 16.7523 45.2712 16.3791 45.3549 15.8891L46.3085 11.4252C46.3802 11.0866 46.2607 10.7359 45.995 10.5128L42.7132 7.7596C42.3573 7.41296 42.5539 6.80733 43.0453 6.73562L47.4002 6.34515C47.567 6.33002 47.7268 6.27041 47.8627 6.17253C47.9987 6.07465 48.1059 5.94209 48.1732 5.78866L49.9608 1.71132C50.1826 1.26507 50.8175 1.26507 51.0379 1.70999Z" fill="#FDD835"/>
<path d="M50.9077 6.03217L50.6049 3.02795C50.5929 2.86061 50.5584 2.57373 50.8267 2.57373C51.0392 2.57373 51.1547 3.016 51.1547 3.016L52.0632 5.42787C52.4058 6.34561 52.2651 6.66037 51.9344 6.84631C51.5545 7.05881 50.994 6.89279 50.9077 6.03217Z" fill="#FFFF8D"/>
<path d="M54.6544 10.2475L57.2602 8.21414C57.389 8.10656 57.6214 7.93523 57.4355 7.74C57.2881 7.58594 56.8896 7.80773 56.8896 7.80773L54.6093 8.6989C53.9293 8.93398 53.4777 9.28195 53.4379 9.72023C53.3861 10.3046 53.9107 10.7548 54.6544 10.2475Z" fill="#F4B400"/>
<path d="M72.0379 1.70999L73.8256 5.78733C73.8929 5.94076 74.0001 6.07332 74.136 6.1712C74.272 6.26908 74.4317 6.32869 74.5985 6.34382L78.9535 6.73429C79.4462 6.80601 79.6428 7.4103 79.2855 7.75827L76.005 10.5141C75.7394 10.7373 75.6185 11.0879 75.6916 11.4266L76.6452 15.8904C76.7289 16.3805 76.2149 16.755 75.7739 16.5226L71.9728 14.2966C71.8295 14.2124 71.6663 14.1681 71.5 14.1681C71.3338 14.1681 71.1706 14.2124 71.0272 14.2966L67.2261 16.5212C66.7865 16.7523 66.2712 16.3791 66.3549 15.8891L67.3085 11.4252C67.3802 11.0866 67.2607 10.7359 66.995 10.5128L63.7132 7.7596C63.3573 7.41296 63.5539 6.80733 64.0453 6.73562L68.4002 6.34515C68.567 6.33002 68.7268 6.27041 68.8627 6.17253C68.9987 6.07465 69.1059 5.94209 69.1732 5.78866L70.9608 1.71132C71.1826 1.26507 71.8175 1.26507 72.0379 1.70999Z" fill="#FDD835"/>
<path d="M71.9077 6.03217L71.6049 3.02795C71.5929 2.86061 71.5584 2.57373 71.8267 2.57373C72.0392 2.57373 72.1547 3.016 72.1547 3.016L73.0632 5.42787C73.4058 6.34561 73.2651 6.66037 72.9344 6.84631C72.5545 7.05881 71.994 6.89279 71.9077 6.03217Z" fill="#FFFF8D"/>
<path d="M75.6544 10.2475L78.2602 8.21414C78.389 8.10656 78.6214 7.93523 78.4355 7.74C78.2881 7.58594 77.8896 7.80773 77.8896 7.80773L75.6093 8.6989C74.9293 8.93398 74.4777 9.28195 74.4379 9.72023C74.3861 10.3046 74.9107 10.7548 75.6544 10.2475Z" fill="#F4B400"/>
<path d="M93.0379 1.70999L94.8256 5.78733C94.8929 5.94076 95.0001 6.07332 95.136 6.1712C95.272 6.26908 95.4317 6.32869 95.5985 6.34382L99.9535 6.73429C100.446 6.80601 100.643 7.4103 100.286 7.75827L97.005 10.5141C96.7394 10.7373 96.6185 11.0879 96.6916 11.4266L97.6452 15.8904C97.7289 16.3805 97.2149 16.755 96.7739 16.5226L92.9728 14.2966C92.8295 14.2124 92.6663 14.1681 92.5 14.1681C92.3338 14.1681 92.1706 14.2124 92.0272 14.2966L88.2261 16.5212C87.7865 16.7523 87.2712 16.3791 87.3549 15.8891L88.3085 11.4252C88.3802 11.0866 88.2607 10.7359 87.995 10.5128L84.7132 7.7596C84.3573 7.41296 84.5539 6.80733 85.0453 6.73562L89.4002 6.34515C89.567 6.33002 89.7268 6.27041 89.8627 6.17253C89.9987 6.07465 90.1059 5.94209 90.1732 5.78866L91.9608 1.71132C92.1826 1.26507 92.8175 1.26507 93.0379 1.70999Z" fill="#FDD835"/>
<path d="M92.9077 6.03217L92.6049 3.02795C92.5929 2.86061 92.5584 2.57373 92.8267 2.57373C93.0392 2.57373 93.1547 3.016 93.1547 3.016L94.0632 5.42787C94.4058 6.34561 94.2651 6.66037 93.9344 6.84631C93.5545 7.05881 92.994 6.89279 92.9077 6.03217Z" fill="#FFFF8D"/>
<path d="M96.6544 10.2475L99.2601 8.21414C99.389 8.10656 99.6214 7.93523 99.4354 7.74C99.288 7.58594 98.8896 7.80773 98.8896 7.80773L96.6092 8.6989C95.9292 8.93398 95.4776 9.28195 95.4378 9.72023C95.386 10.3046 95.9106 10.7548 96.6544 10.2475Z" fill="#F4B400"/>
</svg>
