<svg width="24" height="24" viewBox="0 0 24 24" fill="none" xmlns="http://www.w3.org/2000/svg">
<g id="game-icons:weight-lifting-up" clip-path="url(#clip0_18_575)">
<path id="Vector" d="M3.6324 0.865131L2.80149 1.01171L3.23855 3.49074C2.99149 3.52922 2.74461 3.5689 2.49793 3.6098L2.1931 1.88058L1.3622 2.02702L1.66641 3.75179C1.3975 3.79916 1.12881 3.84779 0.860352 3.89766L1.01466 4.72716C1.28316 4.67719 1.5489 4.62919 1.81285 4.5826L2.1436 6.45854L2.97455 6.3121L2.64455 4.44038C2.89318 4.39916 3.14002 4.35947 3.38509 4.32132L3.84338 6.92054L4.67434 6.77401L4.21979 4.19635C4.61274 4.14001 5.0062 4.08719 5.4001 4.03791C6.12854 6.21244 7.02652 8.72518 8.53773 10.3402C8.94652 11.7652 8.99996 12.5625 10.0575 14.5312C8.99996 16.3125 8.24996 19.3125 7.83793 22.0781L5.58793 22.3593V23.0625H8.99996C9.74996 20.8125 12 16.3125 12 16.3125C12 16.3125 14.25 20.8125 15 23.0625H18.412V22.3593L16.162 22.0781C15.75 19.3125 15 16.3125 13.7812 14.5312C15 12.5625 14.9144 11.7382 15.4607 10.3417C16.9725 8.72673 17.8711 6.21315 18.5998 4.03801C18.9895 4.08676 19.3825 4.13926 19.7801 4.19644L19.3256 6.7741L20.1566 6.92054L20.6149 4.32132C20.86 4.35947 21.1069 4.39916 21.3556 4.44038L21.0255 6.3121L21.8564 6.45858L22.1872 4.58265C22.4511 4.62919 22.7169 4.67719 22.9854 4.72716L23.1397 3.89766C22.8687 3.84727 22.6003 3.79876 22.3336 3.75174L22.6379 2.02693L21.8069 1.88044L21.502 3.60966C21.2554 3.56871 21.0085 3.52902 20.7614 3.4906L21.1985 1.01157L20.3676 0.86499L19.9267 3.36577C17.1554 2.96762 14.5772 2.76746 12 2.76746C9.42277 2.76746 6.84451 2.96762 4.0733 3.36591L3.6324 0.865131ZM12 3.6084C13.6654 3.6084 15.3314 3.69418 17.0541 3.86447C16.394 5.49844 15.2516 7.30998 14.0915 8.64418C13.6074 9.34074 12.8601 9.79683 12 9.79683C11.1398 9.79683 10.3924 9.34074 9.9084 8.64418C8.74834 7.30998 7.6059 5.4984 6.9458 3.86447C8.66846 3.69418 10.3344 3.6084 12 3.6084ZM12 4.54683C11.0233 4.54683 10.1718 5.49558 10.1718 6.74996C10.1718 8.00433 11.0233 8.95308 12 8.95308C12.9766 8.95308 13.8281 8.00433 13.8281 6.74996C13.8281 5.49558 12.9766 4.54683 12 4.54683Z" fill="#CF3737"/>
</g>
<defs>
<clipPath id="clip0_18_575">
<rect width="24" height="24" fill="white"/>
</clipPath>
</defs>
</svg>
