<svg width="24" height="24" viewBox="0 0 24 24" fill="none" xmlns="http://www.w3.org/2000/svg">
<g id="typcn:location">
<path id="Vector" d="M17.657 5.30402C14.533 2.23102 9.46802 2.23102 6.34402 5.30402C5.6023 6.02865 5.01293 6.89425 4.61053 7.84993C4.20814 8.8056 4.00085 9.83208 4.00085 10.869C4.00085 11.906 4.20814 12.9324 4.61053 13.8881C5.01293 14.8438 5.6023 15.7094 6.34402 16.434L12 21.999L17.657 16.434C18.3987 15.7094 18.9881 14.8438 19.3905 13.8881C19.7929 12.9324 20.0002 11.906 20.0002 10.869C20.0002 9.83208 19.7929 8.8056 19.3905 7.84993C18.9881 6.89425 18.3987 6.02865 17.657 5.30402ZM12 13.499C11.332 13.499 10.705 13.239 10.232 12.767C9.76377 12.2978 9.50079 11.6619 9.50079 10.999C9.50079 10.3361 9.76377 9.70027 10.232 9.23102C10.704 8.75902 11.332 8.49902 12 8.49902C12.668 8.49902 13.296 8.75902 13.768 9.23102C14.2363 9.70027 14.4992 10.3361 14.4992 10.999C14.4992 11.6619 14.2363 12.2978 13.768 12.767C13.296 13.239 12.668 13.499 12 13.499Z" fill="#CF3737"/>
</g>
</svg>
